<svg width="399" height="303" viewBox="0 0 399 303" fill="none" xmlns="http://www.w3.org/2000/svg">
<g filter="url(#filter0_bdi_261_450)">
<path d="M41.8211 5.00001C32.0555 5.00001 22.6899 8.88913 15.7846 15.8118C8.87935 22.7345 5 32.1237 5 41.9138V189.569C5 199.359 8.87935 208.749 15.7846 215.671C22.6899 222.594 32.0555 226.483 41.8211 226.483H135.115C137.973 226.483 140.792 227.15 143.349 228.432C145.905 229.713 148.129 231.574 149.844 233.866L184.824 280.617C186.538 282.909 188.762 284.77 191.319 286.051C193.875 287.333 196.694 288 199.552 288C202.41 288 205.229 287.333 207.785 286.051C210.342 284.77 212.566 282.909 214.28 280.617L249.26 233.866C250.975 231.574 253.199 229.713 255.755 228.432C258.312 227.15 261.131 226.483 263.989 226.483H347.179C356.944 226.483 366.31 222.594 373.215 215.671C380.121 208.749 384 199.359 384 189.569V41.9138C384 32.1237 380.121 22.7345 373.215 15.8118C366.31 8.88913 356.944 5 347.179 5L41.8211 5.00001Z" fill="url(#paint0_linear_261_450)"/>
</g>
<g filter="url(#filter1_i_261_450)">
<path fill-rule="evenodd" clip-rule="evenodd" d="M214.28 280.617L249.26 233.866C250.975 231.574 253.199 229.713 255.755 228.432C258.312 227.15 261.131 226.483 263.989 226.483H347.179C356.944 226.483 366.31 222.594 373.215 215.671C380.121 208.749 384 199.359 384 189.569V41.9138C384 32.1237 380.121 22.7345 373.215 15.8118C366.31 8.88913 356.944 5 347.179 5L41.8211 5.00001C32.0555 5.00001 22.6899 8.88913 15.7846 15.8118C8.87935 22.7345 5 32.1237 5 41.9138V189.569C5 199.359 8.87935 208.749 15.7846 215.671C22.6899 222.594 32.0555 226.483 41.8211 226.483H135.115C137.973 226.483 140.792 227.15 143.349 228.432C145.905 229.713 148.129 231.574 149.844 233.866L184.824 280.617C186.538 282.909 188.762 284.77 191.319 286.051C193.875 287.333 196.694 288 199.552 288C202.41 288 205.229 287.333 207.785 286.051C210.342 284.77 212.566 282.909 214.28 280.617ZM157.851 227.875L192.83 274.626L192.831 274.627C193.616 275.677 194.633 276.527 195.8 277.112C196.966 277.696 198.251 278 199.552 278C200.853 278 202.138 277.696 203.304 277.112C204.471 276.527 205.488 275.677 206.273 274.627L206.274 274.626L241.253 227.875C241.253 227.875 241.253 227.875 241.254 227.875C243.898 224.341 247.328 221.47 251.274 219.492C255.221 217.514 259.574 216.483 263.989 216.483H347.179C354.284 216.483 361.103 213.654 366.135 208.609C371.168 203.564 374 196.715 374 189.569V41.9138C374 34.7677 371.168 27.9194 366.135 22.874C361.103 17.8294 354.284 15 347.179 15L41.8211 15C34.7158 15 27.8965 17.8294 22.8646 22.874C17.8319 27.9194 15 34.7677 15 41.9138V189.569C15 196.715 17.8319 203.564 22.8646 208.609C27.8965 213.654 34.7158 216.483 41.8211 216.483H135.115C139.53 216.483 143.883 217.514 147.83 219.492C151.776 221.47 155.207 224.341 157.851 227.875Z" fill="white"/>
</g>
<g filter="url(#filter2_d_261_450)">
<path d="M94.8237 143.504C90.5997 143.504 86.5197 143.024 82.5837 142.064C78.6477 141.104 75.4077 139.856 72.8637 138.32L78.3357 125.936C80.7357 127.328 83.3997 128.456 86.3277 129.32C89.3037 130.136 92.1837 130.544 94.9677 130.544C96.5997 130.544 97.8717 130.448 98.7837 130.256C99.7437 130.016 100.44 129.704 100.872 129.32C101.304 128.888 101.52 128.384 101.52 127.808C101.52 126.896 101.016 126.176 100.008 125.648C98.9997 125.12 97.6557 124.688 95.9757 124.352C94.3437 123.968 92.5437 123.584 90.5757 123.2C88.6077 122.768 86.6157 122.216 84.5997 121.544C82.6317 120.872 80.8077 119.984 79.1277 118.88C77.4957 117.776 76.1757 116.336 75.1677 114.56C74.1597 112.736 73.6557 110.48 73.6557 107.792C73.6557 104.672 74.5197 101.84 76.2477 99.2956C78.0237 96.7036 80.6397 94.6396 84.0957 93.1036C87.5997 91.5676 91.9437 90.7996 97.1277 90.7996C100.536 90.7996 103.896 91.1596 107.208 91.8796C110.52 92.5996 113.496 93.7036 116.136 95.1916L111.024 107.504C108.528 106.256 106.104 105.32 103.752 104.696C101.448 104.072 99.1917 103.76 96.9837 103.76C95.3517 103.76 94.0557 103.904 93.0957 104.192C92.1357 104.48 91.4397 104.864 91.0077 105.344C90.6237 105.824 90.4317 106.352 90.4317 106.928C90.4317 107.792 90.9357 108.488 91.9437 109.016C92.9517 109.496 94.2717 109.904 95.9037 110.24C97.5837 110.576 99.4077 110.936 101.376 111.32C103.392 111.704 105.384 112.232 107.352 112.904C109.32 113.576 111.12 114.464 112.752 115.568C114.432 116.672 115.776 118.112 116.784 119.888C117.792 121.664 118.296 123.872 118.296 126.512C118.296 129.584 117.408 132.416 115.632 135.008C113.904 137.552 111.312 139.616 107.856 141.2C104.4 142.736 100.056 143.504 94.8237 143.504ZM117.88 142.352L139.912 91.9516H156.616L178.648 142.352H161.08L144.808 100.016H151.432L135.16 142.352H117.88ZM130.984 133.568L135.304 121.328H158.488L162.808 133.568H130.984ZM191.085 142.352V120.248L194.973 130.4L172.077 91.9516H190.005L205.485 118.232H195.045L210.669 91.9516H227.085L204.333 130.4L208.077 120.248V142.352H191.085ZM251.549 123.056L248.309 91.9516H267.749L264.509 123.056H251.549ZM258.029 143.072C255.245 143.072 252.965 142.232 251.189 140.552C249.413 138.824 248.525 136.784 248.525 134.432C248.525 132.032 249.413 130.016 251.189 128.384C252.965 126.752 255.245 125.936 258.029 125.936C260.861 125.936 263.141 126.752 264.869 128.384C266.645 130.016 267.533 132.032 267.533 134.432C267.533 136.784 266.645 138.824 264.869 140.552C263.141 142.232 260.861 143.072 258.029 143.072ZM285.819 142.352V105.128H271.059V91.9516H317.571V105.128H302.811V142.352H285.819Z" fill="white"/>
</g>
<defs>
<filter id="filter0_bdi_261_450" x="0" y="0" width="399" height="303" filterUnits="userSpaceOnUse" color-interpolation-filters="sRGB">
<feFlood flood-opacity="0" result="BackgroundImageFix"/>
<feGaussianBlur in="BackgroundImage" stdDeviation="2"/>
<feComposite in2="SourceAlpha" operator="in" result="effect1_backgroundBlur_261_450"/>
<feColorMatrix in="SourceAlpha" type="matrix" values="0 0 0 0 0 0 0 0 0 0 0 0 0 0 0 0 0 0 127 0" result="hardAlpha"/>
<feOffset dx="5" dy="5"/>
<feGaussianBlur stdDeviation="5"/>
<feComposite in2="hardAlpha" operator="out"/>
<feColorMatrix type="matrix" values="0 0 0 0 0 0 0 0 0 0 0 0 0 0 0 0 0 0 0.5 0"/>
<feBlend mode="normal" in2="effect1_backgroundBlur_261_450" result="effect2_dropShadow_261_450"/>
<feBlend mode="normal" in="SourceGraphic" in2="effect2_dropShadow_261_450" result="shape"/>
<feColorMatrix in="SourceAlpha" type="matrix" values="0 0 0 0 0 0 0 0 0 0 0 0 0 0 0 0 0 0 127 0" result="hardAlpha"/>
<feOffset dx="5" dy="5"/>
<feGaussianBlur stdDeviation="25"/>
<feComposite in2="hardAlpha" operator="arithmetic" k2="-1" k3="1"/>
<feColorMatrix type="matrix" values="0 0 0 0 1 0 0 0 0 1 0 0 0 0 1 0 0 0 1 0"/>
<feBlend mode="normal" in2="shape" result="effect3_innerShadow_261_450"/>
</filter>
<filter id="filter1_i_261_450" x="5" y="5" width="384" height="288" filterUnits="userSpaceOnUse" color-interpolation-filters="sRGB">
<feFlood flood-opacity="0" result="BackgroundImageFix"/>
<feBlend mode="normal" in="SourceGraphic" in2="BackgroundImageFix" result="shape"/>
<feColorMatrix in="SourceAlpha" type="matrix" values="0 0 0 0 0 0 0 0 0 0 0 0 0 0 0 0 0 0 127 0" result="hardAlpha"/>
<feOffset dx="5" dy="5"/>
<feGaussianBlur stdDeviation="5"/>
<feComposite in2="hardAlpha" operator="arithmetic" k2="-1" k3="1"/>
<feColorMatrix type="matrix" values="0 0 0 0 1 0 0 0 0 1 0 0 0 0 1 0 0 0 0.25 0"/>
<feBlend mode="normal" in2="shape" result="effect1_innerShadow_261_450"/>
</filter>
<filter id="filter2_d_261_450" x="71.8638" y="89.7998" width="254.708" height="62.7036" filterUnits="userSpaceOnUse" color-interpolation-filters="sRGB">
<feFlood flood-opacity="0" result="BackgroundImageFix"/>
<feColorMatrix in="SourceAlpha" type="matrix" values="0 0 0 0 0 0 0 0 0 0 0 0 0 0 0 0 0 0 127 0" result="hardAlpha"/>
<feOffset dx="4" dy="4"/>
<feGaussianBlur stdDeviation="2.5"/>
<feComposite in2="hardAlpha" operator="out"/>
<feColorMatrix type="matrix" values="0 0 0 0 0 0 0 0 0 0 0 0 0 0 0 0 0 0 0.5 0"/>
<feBlend mode="normal" in2="BackgroundImageFix" result="effect1_dropShadow_261_450"/>
<feBlend mode="normal" in="SourceGraphic" in2="effect1_dropShadow_261_450" result="shape"/>
</filter>
<linearGradient id="paint0_linear_261_450" x1="5" y1="5" x2="403.712" y2="246.449" gradientUnits="userSpaceOnUse">
<stop stop-color="#75FFF7"/>
<stop offset="1" stop-color="#3FA3FF"/>
</linearGradient>
</defs>
</svg>
