<svg width="38" height="38" viewBox="0 0 38 38" fill="none" xmlns="http://www.w3.org/2000/svg">
<path d="M18.745 12.9973C15.3021 12.9973 12.4924 15.807 12.4924 19.25C12.4924 22.693 15.3021 25.5027 18.745 25.5027C22.1878 25.5027 24.9975 22.693 24.9975 19.25C24.9975 15.807 22.1878 12.9973 18.745 12.9973ZM37.4979 19.25C37.4979 16.6608 37.5214 14.095 37.376 11.5104C37.2305 8.50837 36.5457 5.84407 34.3505 3.64883C32.1506 1.44891 29.4911 0.768763 26.4891 0.623353C23.8999 0.477942 21.3342 0.501395 18.7496 0.501395C16.1604 0.501395 13.5947 0.477942 11.0102 0.623353C8.00822 0.768763 5.34397 1.4536 3.14878 3.64883C0.948893 5.84876 0.268758 8.50837 0.12335 11.5104C-0.0220578 14.0996 0.00139519 16.6654 0.00139519 19.25C0.00139519 21.8346 -0.0220578 24.405 0.12335 26.9896C0.268758 29.9916 0.953583 32.6559 3.14878 34.8512C5.34866 37.0511 8.00822 37.7312 11.0102 37.8766C13.5994 38.0221 16.1651 37.9986 18.7496 37.9986C21.3389 37.9986 23.9046 38.0221 26.4891 37.8766C29.4911 37.7312 32.1553 37.0464 34.3505 34.8512C36.5504 32.6512 37.2305 29.9916 37.376 26.9896C37.5261 24.405 37.4979 21.8393 37.4979 19.25ZM18.745 28.8706C13.4211 28.8706 9.12458 24.5739 9.12458 19.25C9.12458 13.9261 13.4211 9.62944 18.745 9.62944C24.0688 9.62944 28.3653 13.9261 28.3653 19.25C28.3653 24.5739 24.0688 28.8706 18.745 28.8706ZM28.7594 11.4823C27.5163 11.4823 26.5126 10.4784 26.5126 9.23542C26.5126 7.99239 27.5163 6.98859 28.7594 6.98859C30.0024 6.98859 31.0061 7.99239 31.0061 9.23542C31.0065 9.53058 30.9487 9.82292 30.8359 10.0957C30.7231 10.3684 30.5576 10.6163 30.3489 10.825C30.1402 11.0337 29.8924 11.1992 29.6196 11.312C29.3468 11.4248 29.0545 11.4826 28.7594 11.4823Z" fill="#E25B5B"/>
</svg>
