<svg width="47" height="38" viewBox="0 0 47 38" fill="none" xmlns="http://www.w3.org/2000/svg">
<path d="M46.6291 4.94818C44.9327 5.69987 43.1104 6.20777 41.1946 6.43733C43.1713 5.25453 44.6502 3.39294 45.3553 1.19992C43.4981 2.30304 41.4655 3.07953 39.3459 3.4956C37.9205 1.97368 36.0325 0.964916 33.975 0.625943C31.9176 0.286969 29.8058 0.636745 27.9675 1.62097C26.1292 2.60519 24.6672 4.16879 23.8086 6.06902C22.9501 7.96924 22.7428 10.0998 23.2192 12.1298C19.456 11.9409 15.7747 10.9628 12.4141 9.25901C9.05341 7.55523 6.08856 5.16386 3.71193 2.24009C2.8993 3.64188 2.43203 5.26714 2.43203 6.99805C2.43113 8.55626 2.81485 10.0906 3.54916 11.465C4.28346 12.8393 5.34565 14.0111 6.64147 14.8765C5.13866 14.8287 3.66901 14.4226 2.35483 13.6921V13.814C2.35468 15.9995 3.11065 18.1177 4.49446 19.8092C5.87827 21.5007 7.8047 22.6614 9.94685 23.0943C8.55275 23.4716 7.09114 23.5271 5.67241 23.2568C6.2768 25.1373 7.45409 26.7816 9.03948 27.9598C10.6249 29.1379 12.539 29.7907 14.5138 29.8269C11.1614 32.4587 7.02115 33.8862 2.75912 33.8799C2.00414 33.8801 1.24981 33.836 0.5 33.7479C4.8262 36.5295 9.86222 38.0057 15.0055 38C32.4161 38 41.9341 23.5798 41.9341 11.0734C41.9341 10.6671 41.9239 10.2567 41.9057 9.85039C43.757 8.51153 45.3551 6.8536 46.625 4.95428L46.6291 4.94818Z" fill="#3FA3FF"/>
</svg>
