<svg width="56" height="64" viewBox="0 0 56 64" fill="none" xmlns="http://www.w3.org/2000/svg">
<path d="M52.1194 11.9543C51.8786 11.6371 51.6214 11.3327 51.3486 11.0421C51.623 10.3167 51.8313 9.56829 51.9712 8.80595C52.3842 6.01717 52.0255 3.16942 50.9336 0.567344C50.9336 0.567344 47.6131 -0.46248 39.9939 4.6278C36.7592 3.74138 33.418 3.29594 30.0623 3.30374C26.6969 3.29788 23.3462 3.74326 20.101 4.6278C12.4818 -0.521327 9.16133 0.567344 9.16133 0.567344C8.08242 3.14186 7.72393 5.95773 8.12369 8.71768C8.26437 9.51172 8.48281 10.2902 8.77592 11.0421C8.5091 11.3364 8.24228 11.66 8.0051 11.9543C5.79282 14.7084 4.61847 18.1425 4.68467 21.6641C4.67764 22.4993 4.71723 23.3342 4.80326 24.1651C5.75195 37.1997 14.4977 40.2303 22.8285 41.1719C21.6494 42.2601 20.8498 43.6925 20.5457 45.2618C20.2701 46.3083 20.1404 47.3874 20.1603 48.4689V52.3234C16.8428 52.6177 13.4394 52.138 12.3839 49.2016C11.251 46.3909 9.37203 43.9374 6.94672 42.1017C6.76946 42.0064 6.60083 41.8962 6.44272 41.7721C6.22975 41.2166 5.85243 40.7381 5.36034 40.3994C4.86825 40.0606 4.28442 39.8776 3.68558 39.8743H3.67075C2.88703 39.8743 2.1352 40.1823 1.57964 40.7309C1.02408 41.2795 0.709998 42.0241 0.706079 42.8019C0.697185 45.1911 3.10746 46.7359 4.0947 47.2596C5.24812 48.4131 6.17594 49.7689 6.83109 51.2583C7.91024 54.2683 11.0676 58.8437 20.0713 58.2493L20.0773 62.59L20.0891 63.3785C20.0891 64.1589 20.4015 64.9073 20.9574 65.4591C21.5134 66.0109 22.2675 66.3209 23.0538 66.3209H37.0293C37.8155 66.3209 38.5696 66.0109 39.1256 65.4591C39.6816 64.9073 39.9939 64.1589 39.9939 63.3785C39.9939 63.3785 40.0176 50.0284 40.0176 48.4689C40.0374 47.3874 39.9077 46.3083 39.6322 45.2618L39.6263 45.2441L39.6382 45.2618C39.6115 45.1588 39.5729 45.0764 39.5433 44.9763C39.213 43.5185 38.4486 42.193 37.3494 41.1719L37.385 41.2337L37.3257 41.1748C45.6565 40.2333 54.3429 37.1438 55.2916 24.168C55.3777 23.3371 55.4173 22.5022 55.4102 21.667C55.4628 18.1524 54.3015 14.7258 52.1194 11.9572V11.9543Z" fill="#303030"/>
</svg>
