<svg width="27" height="28" viewBox="0 0 27 28" fill="none" xmlns="http://www.w3.org/2000/svg">
<path fill-rule="evenodd" clip-rule="evenodd" d="M9.90533 9.95899H14.8573V12.4257C15.5707 11.007 17.4 9.73233 20.148 9.73233C25.416 9.73233 26.6667 12.5563 26.6667 17.7377V27.3337H21.3333V18.9177C21.3333 15.967 20.62 14.303 18.804 14.303C16.2853 14.303 15.2387 16.0963 15.2387 18.9163V27.3337H9.90533V9.95899V9.95899ZM0.76 27.107H6.09333V9.73233H0.76V27.107V27.107ZM6.85733 4.06699C6.85753 4.51403 6.76887 4.95664 6.59652 5.36911C6.42416 5.78158 6.17154 6.15568 5.85333 6.46966C5.20853 7.11049 4.33575 7.4692 3.42667 7.46699C2.51919 7.46638 1.64841 7.10859 1.00267 6.47099C0.685615 6.15594 0.433848 5.78142 0.261792 5.3689C0.0897353 4.95638 0.000772176 4.51396 0 4.06699C0 3.16433 0.36 2.30033 1.004 1.66299C1.64918 1.02454 2.52032 0.666593 3.428 0.666993C4.33733 0.666993 5.20933 1.02566 5.85333 1.66299C6.496 2.30033 6.85733 3.16433 6.85733 4.06699Z" fill="#0A66C2"/>
</svg>
