<svg width="33" height="28" viewBox="0 0 33 28" fill="none" xmlns="http://www.w3.org/2000/svg">
<path d="M10.9379 18.0454C10.8312 18.2604 10.8312 18.4728 10.8312 18.6865C10.9379 19.3684 11.5352 19.8696 12.2339 19.8604H13.9592V26.1598C13.9592 26.8008 13.4205 27.3337 12.7725 27.3337H9.10317C8.78931 27.3306 8.48923 27.2057 8.26754 26.9859C8.04584 26.7661 7.92026 26.4689 7.91783 26.1585V19.8617H1.65645C0.68578 19.8617 0.0377751 18.9001 0.469778 18.0454L9.74985 1.39076C9.87272 1.17144 10.0527 0.988655 10.2711 0.861383C10.4895 0.734112 10.7384 0.666992 10.9919 0.666992C11.2453 0.666992 11.4942 0.734112 11.7126 0.861383C11.931 0.988655 12.111 1.17144 12.2339 1.39076L16.1179 8.75723L10.9379 18.0454V18.0454ZM32.198 18.0454L22.9179 1.39076C22.795 1.17176 22.615 0.989277 22.3968 0.862227C22.1785 0.735177 21.9298 0.668181 21.6766 0.668181C21.4234 0.668181 21.1747 0.735177 20.9564 0.862227C20.7382 0.989277 20.5582 1.17176 20.4353 1.39076L16.4419 8.75854L21.6219 18.0441C21.7299 18.2604 21.7299 18.4741 21.7299 18.6865C21.6233 19.3684 21.0246 19.8696 20.3273 19.8604H18.5992V26.1598C18.6059 26.8061 19.1326 27.3297 19.7859 27.3337H23.6713C23.9854 27.3309 24.2859 27.2064 24.5083 26.987C24.7306 26.7675 24.8571 26.4705 24.8606 26.1598V19.8617H31.01C31.9833 19.8617 32.6287 18.9001 32.1967 18.0454H32.198Z" fill="#4ECB71"/>
</svg>
